<svg xmlns="http://www.w3.org/2000/svg" width="409.992" height="551.829"><g style="stroke-width:9.92745972"><path d="M0 0s-.325 1.994-.515 1.976l-36.182-3.491a5.88 5.88 0 0 1-5.317-5.459l-.994-14.247L-71-23.218l-1.904 12.912c-.424 2.872-2.932 5.037-5.835 5.037h-38.188c-2.902 0-5.41-2.165-5.834-5.037l-1.905-12.912-27.992 1.997-.994 14.247a5.88 5.88 0 0 1-5.317 5.46l-36.2 3.49c-.187.018-.324-1.978-.511-1.978l-.049-7.83 30.658-4.944 1.004-14.374c.203-2.91 2.551-5.263 5.463-5.472l38.551-2.75q.219-.015.434-.016c2.897 0 5.401 2.166 5.825 5.038l1.959 13.286h28.005l1.959-13.286c.423-2.871 2.93-5.037 5.831-5.037q.214 0 .423.015l38.556 2.75c2.911.209 5.26 2.562 5.463 5.472l1.003 14.374L.05-7.81z" style="fill:#fff" transform="matrix(1.83905 0 0 -1.83905 384.916 263.437)"/><path d="M0 0v-59.041q.162 0 .323-.015l36.196-3.49a3.9 3.9 0 0 0 3.514-3.609l1.116-15.978 31.574-2.253 2.175 14.747a3.9 3.9 0 0 0 3.856 3.329h38.188a3.9 3.9 0 0 0 3.855-3.329l2.175-14.747 31.575 2.253 1.115 15.978a3.9 3.9 0 0 0 3.514 3.609l36.182 3.49q.16.014.322.015v4.711l.015.005V0c5.097 6.416 9.923 13.494 13.621 19.449-5.651 9.62-12.575 18.217-19.976 26.182-6.864-3.455-13.531-7.369-19.828-11.534-3.151 3.132-6.7 5.694-10.186 8.372-3.425 2.751-7.285 4.768-10.946 7.118 1.09 8.117 1.629 16.108 1.846 24.448-9.446 4.754-19.519 7.906-29.708 10.17-4.068-6.837-7.788-14.241-11.028-21.479-3.842.642-7.702.88-11.567.926v.006c-.027 0-.052-.006-.075-.006-.024 0-.049.006-.073.006v-.006c-3.872-.046-7.729-.284-11.572-.926-3.238 7.238-6.956 14.642-11.03 21.479-10.184-2.264-20.258-5.416-29.703-10.17.216-8.34.755-16.331 1.848-24.448-3.668-2.35-7.523-4.367-10.949-7.118-3.481-2.678-7.036-5.24-10.188-8.372-6.297 4.165-12.962 8.079-19.828 11.534-7.401-7.965-14.321-16.562-19.974-26.182C-9.178 12.475-4.413 5.466 0 0" style="fill:#478cbf" transform="matrix(1.83905 0 0 -1.83905 25.05 154.857)"/><path d="m0 0-1.121-16.063a3.9 3.9 0 0 0-3.611-3.616l-38.555-2.751a3.9 3.9 0 0 0-4.133 3.32l-2.211 14.994H-81.09l-2.211-14.994a3.895 3.895 0 0 0-4.133-3.32l-38.555 2.751a3.9 3.9 0 0 0-3.611 3.616L-130.721 0l-32.547 3.138c.015-3.498.06-7.33.06-8.093 0-34.374 43.605-50.896 97.781-51.086h.133c54.176.19 97.766 16.712 97.766 51.086 0 .777.047 4.593.063 8.093z" style="fill:#478cbf" transform="matrix(1.83905 0 0 -1.83905 325.198 283.57)"/><path d="M0 0c0-12.052-9.765-21.815-21.813-21.815-12.042 0-21.81 9.763-21.81 21.815 0 12.044 9.768 21.802 21.81 21.802C-9.765 21.802 0 12.044 0 0" style="fill:#fff" transform="matrix(1.83905 0 0 -1.83905 150.75 198.933)"/><path d="M0 0c0-7.994-6.479-14.473-14.479-14.473-7.996 0-14.479 6.479-14.479 14.473s6.483 14.479 14.479 14.479C-6.479 14.479 0 7.994 0 0" style="fill:#414042" transform="matrix(1.83905 0 0 -1.83905 141.097 201.313)"/><path d="M0 0c-3.878 0-7.021 2.858-7.021 6.381v20.081c0 3.52 3.143 6.381 7.021 6.381s7.028-2.861 7.028-6.381V6.381C7.028 2.858 3.878 0 0 0" style="fill:#fff" transform="matrix(1.83905 0 0 -1.83905 204.993 242.702)"/><path d="M0 0c0-12.052 9.765-21.815 21.815-21.815 12.041 0 21.808 9.763 21.808 21.815 0 12.044-9.767 21.802-21.808 21.802C9.765 21.802 0 12.044 0 0" style="fill:#fff" transform="matrix(1.83905 0 0 -1.83905 259.244 198.933)"/><path d="M0 0c0-7.994 6.477-14.473 14.471-14.473C22.473-14.473 28.95-7.994 28.95 0s-6.477 14.479-14.479 14.479C6.477 14.479 0 7.994 0 0" style="fill:#414042" transform="matrix(1.83905 0 0 -1.83905 268.899 201.313)"/></g><path d="M114.657 353.094h47.807l2.913 3.206v9.84l-2.31 3.095h-5.223V418.1l44.995-48.866h-7.432l-2.612-3.096v-10.392l2.41-2.432h48.41l2.411 2.653v9.729L136.552 489.299h-12.454l-3.605-2.29V368.792h-6.037l-2.21-2.433v-10.392z" style="fill:none;stroke:#000;stroke-width:8.34521198;stroke-linecap:butt;stroke-linejoin:miter;stroke-miterlimit:4;stroke-dasharray:none;stroke-opacity:1" transform="matrix(1.11774 0 0 1.01677 -85.966 50.082)"/><path d="m162.972 358.095 2.699-1.564-2.77-3.049H114.68l-2.45 2.697v10.202l2.716 2.99 1.296-2.99-1.704-1.876v-7.192l1.278-1.25h46.02z" style="fill:#478cbf;fill-opacity:1;stroke:#000;stroke-width:.41726059px;stroke-linecap:butt;stroke-linejoin:miter;stroke-opacity:1" transform="matrix(1.11774 0 0 1.01677 -85.966 50.082)"/><path d="m197.065 355.747-1.703 1.875v6.88l1.491 1.643h7.88v6.648l-52.124 58.157v-64.723h8.662l1.778-1.957v-6.963l-1.64-1.396h-45.587l-1.492 1.642v7.114l1.516 1.67h7.93v119.185l1.49 1.642h9.011l109.232-124.07v-5.472l-1.703-1.875z" style="fill:none;stroke:#000;stroke-width:.41726059px;stroke-linecap:butt;stroke-linejoin:miter;stroke-opacity:1" transform="matrix(1.11774 0 0 1.01677 -85.966 50.082)"/><path d="M123.696 366.14v119.4l1.406 1.769-1.102 2.313-3.116-3.419V369.235Z" style="fill:#478cbf;fill-opacity:1;stroke:#000;stroke-width:.41726059px;stroke-linecap:butt;stroke-linejoin:miter;stroke-opacity:1" transform="matrix(1.11774 0 0 1.01677 -85.966 50.082)"/><path d="m115.906 366.14-.804 2.874h5.826l3.213-2.875zm80.019 3.228 1.278-2.893-1.846-1.876v-6.41l2.13-2.346h44.458l1.704 2.502 2.415-1.876-2.486-2.736h-47.795l-2.38 2.618v10.28l2.468 2.56m-38.625 49.363-4.642 12.4 52.411-57.85v-6.879z" style="fill:#478cbf;fill-opacity:1;stroke:#000;stroke-width:.41726059px;stroke-linecap:butt;stroke-linejoin:miter;stroke-opacity:1" transform="matrix(1.11774 0 0 1.01677 -85.966 50.082)"/><path d="m162.866 357.737 2.31-1.658v10.06l-2.662 2.93h-5.172v49.584l-4.72 12.272V366.14h8.637l1.607-1.437z" style="fill:#478cbf;fill-opacity:1;stroke:#000;stroke-width:.41726059px;stroke-linecap:butt;stroke-linejoin:miter;stroke-opacity:1" transform="matrix(1.11774 0 0 1.01677 -85.966 50.082)"/><path d="m197.065 355.747-1.703 1.875v6.88l1.491 1.643h7.88v6.648l-52.124 58.157v-64.723h8.662l1.778-1.957v-6.963l-1.64-1.396h-45.587l-1.492 1.642v7.114l1.516 1.67h7.93v119.185l1.49 1.642h9.011l109.232-124.07v-5.472l-1.703-1.875z" style="fill:#478cbf;fill-opacity:1;stroke:#000;stroke-width:.41726059px;stroke-linecap:butt;stroke-linejoin:miter;stroke-opacity:1" transform="matrix(1.11774 0 0 1.01677 -85.966 50.082)"/><path d="m243.649 357.782 2.426-1.542v9.672L136.04 489.682h-11.682l1.116-2.442h8.948l109.084-123.986Zm-38.852 8.523-2.46 2.82h-6.428l1.506-2.82z" style="fill:#478cbf;fill-opacity:1;stroke:#000;stroke-width:.41726059px;stroke-linecap:butt;stroke-linejoin:miter;stroke-opacity:1" transform="matrix(1.11774 0 0 1.01677 -85.966 50.082)"/><path d="M399.781 560a1.23 1.23 0 0 0-.562.281l-5.313 4.563a1.23 1.23 0 0 0-.344.531l-5.312 14.875a1.23 1.23 0 0 0 .281 1.281l4.063 4.063a1.23 1.23 0 0 0 .875.343h16.406a1.23 1.23 0 0 0 .875-.343l4.281-4.313a1.23 1.23 0 0 0 .313-.531l4.562-15.656a1.23 1.23 0 0 0-.312-1.219l-3.531-3.531a1.23 1.23 0 0 0-.875-.344H400.03a1.2 1.2 0 0 0-.25 0zm-30.062 41.938a1.23 1.23 0 0 0-.938.906l-2.031 8.062a1.233 1.233 0 0 0 1.188 1.532h9.656l-23.938 68.343a1.233 1.233 0 0 0 1.156 1.625h34.844a1.23 1.23 0 0 0 1.188-.843l2.281-7.344a1.233 1.233 0 0 0-1.187-1.594h-7.875l23.687-69.062a1.233 1.233 0 0 0-1.156-1.625h-36.625a1.2 1.2 0 0 0-.25 0zm110.875.25a1.23 1.23 0 0 0-.688.406l-7.25 8.187h-11.531l-7.687-7.968a1.23 1.23 0 0 0-.875-.375H425.03a1.23 1.23 0 0 0-1.156.812l-2.531 7.563a1.233 1.233 0 0 0 1.156 1.625h7.375l-22.937 67.593a1.233 1.233 0 0 0 1.156 1.625h29.312a1.23 1.23 0 0 0 1.156-.812l2.25-6.594a1.233 1.233 0 0 0-1.156-1.625h-5.125l14.625-46.031h26.469l-16.687 53.468a1.233 1.233 0 0 0 1.187 1.594h28.281a1.23 1.23 0 0 0 1.125-.75l2.531-6.062a1.233 1.233 0 0 0-1.125-1.688h-5.125l14.875-46.812h25.188l-16.937 53.718a1.233 1.233 0 0 0 1.187 1.594h31.063a1.23 1.23 0 0 0 1.156-.781l2.531-6.594a1.233 1.233 0 0 0-1.156-1.656h-6.157l18.72-60.781a1.23 1.23 0 0 0-.188-1.125l-5.813-7.813a1.23 1.23 0 0 0-1-.468h-22.218a1.23 1.23 0 0 0-.907.375l-7 7.687h-12.25l-7.25-7.937a1.23 1.23 0 0 0-.906-.375h-17.906a1.2 1.2 0 0 0-.25 0z" style="fill:#ccc;fill-opacity:1;stroke:#000;stroke-width:8;stroke-linecap:butt;stroke-linejoin:miter;stroke-miterlimit:10;stroke-dasharray:none;stroke-opacity:1" transform="matrix(1.00751 0 0 1.00886 -189.39 -145.38)"/><path d="m400.031 561.219-5.312 4.562-5.313 14.875 4.063 4.063h16.406l4.281-4.313 4.563-15.656-3.531-3.531zm-30.062 41.937-2.031 8.063h11.375l-24.5 69.968h34.843l2.281-7.343h-9.593l24.25-70.688zm110.875.25L473.25 612h-12.625l-8.062-8.344H425.03l-2.531 7.563h9.094l-23.5 69.218h29.312l2.25-6.593h-6.812l15.406-48.469h29.063l-17.188 55.063h28.281l2.531-6.063h-6.812l15.656-49.25h27.781l-17.437 55.313h31.063l2.53-6.594h-7.843l19.219-62.375-5.813-7.813h-22.218l-7.344 8.063h-13.375l-7.594-8.313z" style="fill:#478cbf;fill-opacity:1;stroke:#000;stroke-width:1;stroke-linecap:butt;stroke-linejoin:miter;stroke-miterlimit:10;stroke-dasharray:none;stroke-opacity:1" transform="matrix(1.00751 0 0 1.00886 -189.39 -145.38)"/></svg>