<svg xmlns="http://www.w3.org/2000/svg" width="944" height="333.05" viewBox="0 0 885 312.233"><clipPath id="a"><path d="M0 595.276h841.89V0H0z"/></clipPath><g clip-path="url(#a)" transform="matrix(1.25 0 0 -1.25 -131.75 559.11)"><path fill="#414042" d="M453.43 368.3c-13.113 0-23.367-4.129-30.772-12.385-7.41-8.26-11.109-18.981-11.109-32.18q0-23.245 11.357-35.247c7.585-8.001 17.543-11.997 29.889-11.997q9.959-.002 17.681 1.723c5.154 1.145 8.58 2.321 10.285 3.51l.511 39.96c0 2.322-6.129 3.377-13.003 3.495-6.874.106-14.742-1.327-14.742-1.327v-13.418h7.912l-.088-5.981c0-2.216-2.197-3.328-6.577-3.328q-6.58.002-11.621 5.56c-3.369 3.709-5.044 9.13-5.044 16.274 0 7.159 1.637 12.435 4.915 15.841 3.27 3.402 7.56 5.11 12.833 5.11 2.216 0 4.51-.358 6.895-1.087 2.386-.723 3.98-1.4 4.793-2.035.806-.653 1.573-.962 2.298-.962.722 0 1.89.845 3.507 2.551 1.619 1.703 3.068 4.282 4.348 7.722 1.273 3.457 1.911 6.108 1.911 7.987 0 1.865-.042 3.15-.124 3.83q-2.682 2.933-9.903 4.662c-4.804 1.15-10.192 1.721-16.15 1.721zm78.344 0q-18.072-.002-29.5-11.615c-7.616-7.751-11.424-19.134-11.424-34.167q0-22.538 11.292-34.286 11.307-11.739 29.247-11.739c11.964 0 21.727 3.762 29.307 11.288q11.368 11.311 11.367 34.487c0 15.44-3.701 26.984-11.115 34.6-7.4 7.63-17.129 11.433-29.174 11.433zm169.36 0c-12.051 0-21.88-3.874-29.505-11.615-7.615-7.751-11.423-19.134-11.423-34.167q0-22.538 11.303-34.286 11.294-11.739 29.238-11.739 17.94 0 29.307 11.288 11.369 11.311 11.367 34.487c0 15.44-3.701 26.984-11.109 34.6-7.41 7.63-17.131 11.433-29.178 11.433zm-112.05-1.143c-1.708 0-3.09-.622-4.151-1.85-1.07-1.246-1.599-2.927-1.599-5.056V283.64c0-3.92 2.176-5.873 6.515-5.873h21.83c26.733 0 40.104 15.661 40.104 46.991 0 14.645-3.515 25.366-10.544 32.175-7.018 6.811-17.296 10.225-30.83 10.225zm159.32 0c-1.449 0-2.47-1.967-3.064-5.882a42.5 42.5 0 0 1-.378-5.743c0-1.96.122-3.873.378-5.742.593-3.926 1.615-5.88 3.064-5.88h15.321v-64.109c0-1.692 4.22-2.55 12.645-2.55 8.432 0 12.642.858 12.642 2.55v64.11h14.941c1.447 0 2.465 1.953 3.067 5.88.25 1.868.38 3.78.38 5.741 0 1.95-.13 3.87-.38 5.743-.602 3.915-1.62 5.882-3.067 5.882zm-216.96-23.376q6.135 0 10.28-5.484c2.767-3.66 4.154-8.901 4.154-15.71q-.001-10.221-4.025-15.706c-2.682-3.67-6.174-5.499-10.472-5.499-4.3 0-7.766 1.807-10.405 5.435-2.643 3.616-3.962 8.804-3.962 15.583 0 6.763 1.387 12.02 4.148 15.765 2.776 3.741 6.197 5.617 10.282 5.617zm169.36 0c4.09 0 7.513-1.828 10.28-5.484 2.767-3.66 4.151-8.901 4.151-15.71q0-10.221-4.025-15.706c-2.678-3.67-6.173-5.499-10.472-5.499-4.3 0-7.77 1.807-10.405 5.435-2.635 3.616-3.958 8.804-3.958 15.583q0 10.146 4.141 15.765c2.771 3.741 6.202 5.617 10.288 5.617zm-92.959-.884h1.277c5.449 0 9.43-1.246 11.944-3.715 2.502-2.462 3.76-7.764 3.76-15.898 0-8.131-1.202-13.936-3.635-17.423-2.427-3.49-5.977-5.241-10.664-5.241-1.274 0-2.042.235-2.296.704q-.384.706-.386 3.38z"/><path fill="#fff" d="M348.13 279.27s-.368 2.255-.582 2.235l-40.924-3.948a6.65 6.65 0 0 1-6.014-6.175l-1.125-16.114-31.66-2.259-2.153 14.604c-.48 3.249-3.316 5.697-6.6 5.697H215.88c-3.282 0-6.119-2.448-6.598-5.697l-2.155-14.604-31.66 2.26-1.124 16.113a6.65 6.65 0 0 1-6.014 6.176l-40.944 3.947c-.212.02-.367-2.237-.578-2.237l-.056-8.856 34.676-5.592 1.136-16.258c.23-3.292 2.885-5.953 6.179-6.19l43.603-3.11q.247-.017.49-.018c3.278 0 6.11 2.45 6.59 5.698l2.215 15.027h31.675l2.216-15.027c.478-3.247 3.314-5.697 6.595-5.697q.241 0 .478.017l43.61 3.11c3.292.237 5.949 2.898 6.178 6.19l1.135 16.258 34.66 5.617z"/><path fill="#478cbf" d="M211.833 441.29c-11.519-2.56-22.914-6.125-33.597-11.502.245-9.433.854-18.471 2.09-27.652-4.148-2.658-8.508-4.939-12.383-8.05-3.938-3.03-7.96-5.928-11.524-9.47-7.122 4.71-14.66 9.138-22.425 13.046-8.37-9.01-16.199-18.733-22.592-29.613 4.81-7.782 9.832-15.076 15.255-21.998h.15v-66.779q.185-.001.367-.018l40.94-3.946a4.41 4.41 0 0 0 3.973-4.082l1.263-18.072 35.711-2.55 2.46 16.68a4.41 4.41 0 0 0 4.362 3.765h43.192a4.41 4.41 0 0 0 4.361-3.764l2.46-16.68 35.713 2.549 1.26 18.072a4.41 4.41 0 0 0 3.975 4.082l40.923 3.946q.18.017.365.018v5.33l.017.005v61.444h.151c5.423 6.923 10.442 14.217 15.255 21.998-6.392 10.881-14.223 20.605-22.594 29.613-7.763-3.908-15.304-8.335-22.426-13.046-3.564 3.542-7.578 6.441-11.521 9.47-3.874 3.112-8.24 5.393-12.381 8.05 1.233 9.181 1.843 18.22 2.089 27.652-10.684 5.377-22.078 8.942-33.602 11.502-4.601-7.733-8.81-16.106-12.474-24.293-4.345.726-8.71.995-13.082 1.047v.006c-.03 0-.059-.006-.085-.006s-.056.006-.083.006v-.006c-4.38-.052-8.742-.32-13.089-1.047-3.662 8.186-7.866 16.56-12.474 24.293m-85.095-170.85c.017-3.956.067-8.29.067-9.154 0-38.878 49.32-57.565 110.595-57.78h.15c61.277.214 110.58 18.902 110.58 57.78 0 .88.054 5.195.073 9.154l-36.798-3.55-1.269-18.168a4.41 4.41 0 0 0-4.084-4.09l-43.609-3.111a4.41 4.41 0 0 0-4.674 3.756l-2.5 16.958h-35.583l-2.5-16.958a4.406 4.406 0 0 0-4.675-3.756l-43.608 3.111a4.41 4.41 0 0 0-4.084 4.09l-1.267 18.169z"/><path fill="#fff" d="M179.442 343.603c-13.62 0-24.668-11.037-24.668-24.66 0-13.631 11.048-24.673 24.668-24.673 13.627 0 24.672 11.042 24.672 24.673 0 13.623-11.045 24.66-24.672 24.66m116.07 0c-13.629 0-24.673-11.037-24.673-24.66 0-13.631 11.044-24.673 24.673-24.673 13.62 0 24.665 11.042 24.665 24.673 0 13.623-11.046 24.66-24.665 24.66m-58.04-14.43c-4.386 0-7.941-3.236-7.941-7.218v-22.712c0-3.985 3.555-7.217 7.941-7.217s7.95 3.232 7.95 7.217v22.712c0 3.982-3.563 7.218-7.95 7.218"/><path fill="#414042" d="M181.803 333.853c-9.045 0-16.376-7.336-16.376-16.377s7.332-16.37 16.376-16.37c9.048 0 16.377 7.328 16.377 16.37s-7.329 16.377-16.377 16.377m111.345 0c-9.042 0-16.368-7.336-16.368-16.377s7.326-16.37 16.368-16.37c9.05 0 16.375 7.328 16.375 16.37s-7.325 16.377-16.375 16.377"/></g></svg>